<?xml version="1.0" encoding="UTF-8" standalone="no"?>
<svg
   width="125.00256"
   height="132.905"
   viewBox="0 0 125.00256 132.905"
   version="1.1"
   id="svg8"
   xmlns:xlink="http://www.w3.org/1999/xlink"
   xmlns="http://www.w3.org/2000/svg"
   xmlns:svg="http://www.w3.org/2000/svg">
  <defs
     id="defs2">
    <linearGradient
       id="a"
       x1="62.500999"
       y1="131.989"
       x2="62.500999"
       y2="6.0840001"
       gradientUnits="userSpaceOnUse">
      <stop
         offset="0"
         stop-color="#a65ecc"
         id="stop1" />
      <stop
         offset="0.721"
         stop-color="#c088e5"
         id="stop2" />
    </linearGradient>
    <linearGradient
       xlink:href="#a"
       id="linearGradient8"
       gradientUnits="userSpaceOnUse"
       x1="62.500999"
       y1="131.989"
       x2="62.500999"
       y2="6.0840001" />
    <linearGradient
       xlink:href="#a"
       id="linearGradient9"
       gradientUnits="userSpaceOnUse"
       x1="62.500999"
       y1="131.989"
       x2="62.500999"
       y2="6.0840001" />
    <linearGradient
       xlink:href="#a"
       id="linearGradient10"
       gradientUnits="userSpaceOnUse"
       x1="62.500999"
       y1="131.989"
       x2="62.500999"
       y2="6.0840001" />
  </defs>
  <g
     id="g8"
     transform="translate(0.00256752,-2.5840001)">
    <g
       id="g7"
       transform="matrix(1.0593207,0,0,1.0555975,-3.7074703,-3.838255)">
      <path
         d="M 32.9,30.289 C 12.6,51.889 3.32,62.7 3.5,65.089 c 0.3,4 16.9,20.5 39.8,43.9 l 10.3,10.5 c 0,0 -0.6,12.5 -0.2,12.5 0.4,0 8,-6.7 16.9,-15 9,-8.2 20,-18.2 24.5,-22.2 20.7,-18.1 26.7,-23.7 26.7,-26.5 0,-3.057 -23.129,-23.9 -28.972,-29.118 a 2,2 0 0 0 -2.657,0 L 61.5,67.084 c 0,0 18,23.1 18,23.405 0,1.4 -23.695,-14.5 -25.5,-14.5 -1.2,0 -16.995,11.3 -17.195,11.1 -0.7,-0.7 10.7,-15 10.7,-17.095 0,-1.905 -14.7,-19.7 -14.5,-19.9 0.3,-0.3 19.7,11 21.5,11 -0.081,0.076 8.269,-8.271 11.627,-11.627 a 2.078,2.078 0 0 0 0.1,-2.841 C 64.176,44.275 59.917,39.482 55.607,35.099 42.1,21.289 41.5,21.189 32.9,30.289 Z"
         fill="url(#a)"
         id="path5"
         style="fill:url(#linearGradient8)" />
      <polygon
         points="77.808,27.084 75.808,43.084 84.808,33.084 "
         fill="url(#a)"
         id="polygon6"
         style="fill:url(#linearGradient9)" />
      <polygon
         points="72.808,6.084 68.808,36.084 58.808,13.084 "
         fill="url(#a)"
         id="polygon7"
         style="fill:url(#linearGradient10)" />
    </g>
  </g>
</svg>
